<?xml version="1.0" encoding="UTF-8" standalone="no"?>
<!DOCTYPE svg PUBLIC "-//W3C//DTD SVG 1.1//EN" "http://www.w3.org/Graphics/SVG/1.1/DTD/svg11.dtd">
<svg version="1.1" xmlns="http://www.w3.org/2000/svg" xmlns:xlink="http://www.w3.org/1999/xlink" preserveAspectRatio="xMidYMid meet" viewBox="0 0 640 640" width="640" height="640"><defs><path d="M9.49 200.84C9.49 291.24 9.49 341.46 9.49 351.5C9 357.13 10.75 362.71 14.35 367.06C17.56 370.38 22.02 372.2 26.64 372.08C32.22 372.16 37.54 369.71 41.11 365.43C41.52 365.75 44.82 368.37 45.23 368.69C40.69 374.27 33.83 377.44 26.64 377.29C20.63 377.42 14.85 375.02 10.7 370.68C6.06 365.39 3.73 358.47 4.24 351.46C4.24 341.42 4.24 291.21 4.24 200.84L9.49 200.84Z" id="b25AWwg96s"></path><path d="M7.66 373.79C2.2 367.74 -0.6 359.75 -0.12 351.62C-0.12 341.29 -0.12 289.63 -0.12 196.64L13.69 196.64C13.69 289.56 13.69 341.18 13.69 351.5C13.28 355.97 14.6 360.43 17.38 363.95C19.77 366.51 23.14 367.92 26.64 367.84C31.01 367.91 35.16 365.97 37.92 362.59C38.1 362.38 38.98 361.37 40.56 359.55L51.3 368.07C49.57 370.05 48.61 371.16 48.42 371.38C43.1 377.93 35.08 381.68 26.64 381.57C19.51 381.73 12.63 378.91 7.66 373.79Z" id="h4GoeMxF1V"></path><path d="M136.59 271.46C145.07 276.47 152.15 283.55 157.16 292.04C167.37 309.73 167.37 331.52 157.16 349.21C152.11 357.59 145.04 364.57 136.59 369.51C127.97 374.65 118.11 377.34 108.08 377.29C98.02 377.37 88.13 374.68 79.49 369.51C71.03 364.5 63.98 357.42 59 348.94C53.83 340.33 51.14 330.47 51.22 320.43C51.13 310.34 53.82 300.42 59 291.76C63.98 283.28 71.03 276.2 79.49 271.19C88.16 266.12 98.04 263.52 108.08 263.68C118.11 263.63 127.97 266.32 136.59 271.46ZM82.18 276.17C74.49 280.67 68.06 287.06 63.51 294.72C54.28 310.78 54.28 330.54 63.51 346.6C68.05 354.3 74.47 360.71 82.18 365.23C98.19 374.51 117.94 374.51 133.94 365.23C141.65 360.71 148.07 354.3 152.61 346.6C161.89 330.55 161.89 310.77 152.61 294.72C148.06 287.06 141.64 280.67 133.94 276.17C126.14 271.47 117.19 269.02 108.08 269.09C98.96 269.02 89.99 271.47 82.18 276.17Z" id="c6xpgP8sf"></path><path d="M77.32 373.4C68.25 368.02 60.69 360.43 55.34 351.35C44.35 332.34 44.35 308.91 55.34 289.9C60.69 280.81 68.25 273.23 77.32 267.85C86.62 262.33 97.26 259.48 108.08 259.6C118.86 259.5 129.45 262.35 138.73 267.85C147.83 273.21 155.42 280.79 160.78 289.9C171.77 308.91 171.77 332.34 160.78 351.35C155.42 360.45 147.83 368.04 138.73 373.4C129.45 378.86 118.85 381.69 108.08 381.57C97.27 381.71 86.63 378.88 77.32 373.4ZM84.32 279.67C77.25 283.83 71.34 289.72 67.17 296.78C58.66 311.48 58.66 329.61 67.17 344.31C71.33 351.4 77.23 357.32 84.32 361.5C99.02 369.95 117.1 369.95 131.8 361.5C138.89 357.31 144.8 351.39 148.99 344.31C157.44 329.59 157.44 311.5 148.99 296.78C144.79 289.73 138.88 283.84 131.8 279.67C124.63 275.42 116.42 273.21 108.08 273.29C99.72 273.2 91.51 275.41 84.32 279.67Z" id="d2mykYx13"></path><path d="M269.21 268.39C271.15 267.65 280.84 263.97 298.3 257.35L300.44 262.17C285.36 267.86 276.99 271.03 275.31 271.66C282.54 276.25 288.51 282.55 292.7 290.01C297.01 297.65 299.24 306.29 299.15 315.06C299.4 328.23 294.37 340.96 285.19 350.41C276.03 360.09 263.5 365.87 250.19 366.55C250.19 367.09 250.19 371.42 250.19 371.96C259.04 372.7 267.3 376.72 273.33 383.24C279.39 389.59 282.7 398.07 282.55 406.84C282.57 426.18 266.92 441.87 247.59 441.89C238.34 441.91 229.46 438.25 222.89 431.74C216.17 425.23 212.45 416.23 212.62 406.88C213.16 406.88 217.45 406.88 217.99 406.88C217.87 414.8 221.01 422.42 226.66 427.96C238.26 439.57 257.07 439.58 268.68 427.98C280.29 416.38 280.3 397.57 268.7 385.96C263.18 380.29 255.57 377.16 247.66 377.29C238.92 377.31 230.62 381.14 224.95 387.79C223.82 389.09 222.83 390.51 221.99 392.03C221.54 391.77 217.9 389.75 217.44 389.5C218.44 387.67 219.62 385.95 220.98 384.37C227.03 377.22 235.68 372.79 245.02 372.08C245.02 371.54 245.02 367.21 245.02 366.67C231.71 365.98 219.18 360.2 210.01 350.53C200.83 341.04 195.85 328.26 196.17 315.06C196.06 305.97 198.46 297.02 203.09 289.2C207.64 281.5 214.06 275.08 221.76 270.53C229.61 265.93 238.57 263.56 247.66 263.68C255.11 263.6 262.48 265.21 269.21 268.39ZM201.42 315.02C201.42 315.03 201.42 315.05 201.42 315.06C201.41 340.6 222.1 361.31 247.64 361.32C259.92 361.33 271.69 356.45 280.37 347.77C289.21 339.2 294.11 327.37 293.9 315.06C293.84 289.61 273.15 269.03 247.7 269.09C247.69 269.09 247.67 269.09 247.66 269.09C222.21 269 201.51 289.57 201.42 315.02Z" id="g30hvmVrhJ"></path><path d="M247.66 446.24C225.99 446.26 208.4 428.71 208.38 407.04C208.38 407.01 208.38 406.99 208.38 406.96C208.38 406.68 208.38 405.28 208.38 402.76L222.23 402.76C222.23 405.28 222.23 406.68 222.23 406.96C222.09 413.76 224.78 420.31 229.65 425.05C234.33 429.97 240.87 432.69 247.66 432.55C261.73 432.65 273.22 421.33 273.32 407.26C273.37 400.39 270.64 393.79 265.75 388.95C261.02 384.05 254.47 381.34 247.66 381.49C240.16 381.52 233.05 384.85 228.22 390.59C227.32 391.67 226.51 392.83 225.8 394.05C225.67 394.31 224.98 395.61 223.74 397.94L211.88 391.29C213.09 388.95 213.77 387.66 213.9 387.4C214.98 385.32 216.28 383.36 217.79 381.57C222.56 375.94 228.81 371.76 235.84 369.51C224.84 367.16 214.81 361.52 207.1 353.33C197.15 343.1 191.69 329.33 191.93 315.06C191.84 305.2 194.45 295.5 199.47 287.02C204.38 278.72 211.31 271.8 219.62 266.91C228.1 261.88 237.8 259.27 247.66 259.37C255.13 259.31 262.52 260.82 269.36 263.8C271.44 263.02 281.81 259.13 300.48 252.13L306.08 264.5C292.78 269.59 285.39 272.41 283.91 272.98C288.87 277.25 293.04 282.36 296.24 288.07C300.93 296.29 303.38 305.6 303.35 315.06C303.58 329.33 298.12 343.09 288.19 353.33C280.47 361.52 270.45 367.16 259.45 369.51C266.01 371.55 271.91 375.29 276.56 380.36C283.35 387.49 287.06 397 286.9 406.84C286.99 428.45 269.54 446.04 247.93 446.13C247.84 446.13 247.75 446.13 247.66 446.13C247.66 446.15 247.66 446.22 247.66 446.24ZM247.66 273.29C224.53 273.25 205.73 291.93 205.62 315.06C205.58 338.3 224.38 357.18 247.62 357.22C247.64 357.22 247.65 357.22 247.66 357.22C270.88 357.2 289.69 338.36 289.66 315.14C289.66 315.11 289.66 315.09 289.66 315.06C289.66 291.93 270.91 273.17 247.78 273.17C247.74 273.17 247.7 273.17 247.66 273.17C247.66 273.2 247.66 273.27 247.66 273.29Z" id="g6OdUthWTB"></path><path d="M391.64 275.9C387.16 271.2 380.81 268.75 374.33 269.21C365.78 269.52 357.87 273.84 352.98 280.88C346.51 290.44 342.62 301.52 341.7 313.04C341.7 317.17 341.7 337.85 341.7 375.07L336.45 375.07L336.45 266.17L341.7 266.17C341.7 282.51 341.7 291.58 341.7 293.4C344.12 284.9 349.01 277.3 355.74 271.58C360.94 267.11 367.48 264.51 374.33 264.19C382.38 263.61 390.27 266.72 395.76 272.63C394.94 273.28 392.05 275.57 391.64 275.9Z" id="h1XmwEx1P"></path><path d="M346.14 379.27L332.25 379.27L332.25 261.74L346.14 261.74C346.14 269.91 346.14 274.44 346.14 275.35C348.2 272.56 350.62 270.05 353.33 267.89C359.26 262.87 366.69 259.96 374.45 259.6C383.81 259.08 392.91 262.86 399.14 269.87C399.34 270.09 400.3 271.21 402.02 273.21L391.29 281.69C389.7 279.87 388.82 278.86 388.64 278.66C384.95 274.9 379.77 272.99 374.53 273.45C367.29 273.76 360.62 277.48 356.56 283.48C350.59 292.39 347.01 302.67 346.14 313.35C346.14 322.14 346.14 344.11 346.14 379.27Z" id="b5J0uiGCR2"></path><path d="M504.85 347.81C500.02 356.77 492.86 364.27 484.12 369.51C466.38 379.99 444.37 380.09 426.52 369.78C418.04 364.77 410.96 357.69 405.95 349.21C400.8 340.59 398.11 330.73 398.17 320.7C398.1 310.61 400.79 300.7 405.95 292.04C410.96 283.55 418.04 276.47 426.52 271.46C444.37 261.13 466.41 261.26 484.12 271.81C492.8 277.04 499.94 284.46 504.85 293.32C504.85 291.51 504.85 282.43 504.85 266.1L510.1 266.1C510.1 317.43 510.1 345.95 510.1 351.66C509.6 357.29 511.37 362.89 515 367.21C518.2 370.53 522.65 372.35 527.25 372.23C532.83 372.31 538.15 369.87 541.72 365.58C542.13 365.91 545.43 368.52 545.84 368.85C541.27 374.37 534.42 377.48 527.25 377.29C521.25 377.42 515.46 375.02 511.31 370.68C506.67 365.39 504.35 358.47 504.85 351.46C504.85 350.73 504.85 348.54 504.85 347.81ZM504.85 307.4C501.95 296.33 495.44 286.54 486.34 279.59C477.44 272.69 466.48 268.99 455.23 269.09C446.05 268.98 437.03 271.43 429.17 276.17C421.48 280.67 415.05 287.06 410.5 294.72C401.22 310.77 401.22 330.55 410.5 346.6C415.04 354.3 421.46 360.71 429.17 365.23C447.2 375.69 469.77 374.27 486.34 361.61C495.4 354.67 501.91 344.92 504.85 333.88C504.85 328.59 504.85 312.7 504.85 307.4Z" id="bjZu8dpus"></path><path d="M508.27 373.79C504.73 370.05 502.35 365.36 501.43 360.29C497.07 365.34 491.9 369.64 486.14 373.01C467.08 384.32 443.39 384.42 424.23 373.28C415.13 367.92 407.54 360.33 402.18 351.23C391.19 332.22 391.19 308.79 402.18 289.78C407.54 280.68 415.13 273.09 424.23 267.73C443.42 256.62 467.12 256.75 486.18 268.08C491.57 271.32 496.44 275.36 500.61 280.06C500.61 278.84 500.61 272.73 500.61 261.74L514.3 261.74C514.3 315.6 514.3 345.52 514.3 351.5C513.93 356 515.32 360.46 518.19 363.95C520.56 366.5 523.92 367.92 527.41 367.84C531.78 367.93 535.94 365.99 538.69 362.59C538.87 362.38 539.76 361.37 541.37 359.55L552.07 368.07C550.36 370.05 549.42 371.16 549.23 371.38C543.86 377.97 535.75 381.73 527.25 381.57C520.12 381.72 513.24 378.9 508.27 373.79ZM431.27 279.67C424.19 283.84 418.28 289.73 414.08 296.78C405.6 311.49 405.6 329.6 414.08 344.31C418.24 351.4 424.15 357.32 431.23 361.5C438.44 365.73 446.67 367.92 455.03 367.84C465.42 368 475.54 364.58 483.69 358.15C491.86 351.87 497.78 343.11 500.57 333.18C500.57 330.66 500.57 310.5 500.57 307.98C497.83 298.03 491.92 289.24 483.73 282.94C475.55 276.54 465.42 273.14 455.03 273.29C446.68 273.2 438.46 275.41 431.27 279.67Z" id="abgkgPcBG"></path><path d="M610.6 210.79C607.09 206.51 601.82 204.04 596.29 204.1C591.61 203.96 587.09 205.79 583.84 209.16C580.22 213.49 578.47 219.09 578.98 224.72C578.98 227.47 578.98 241.22 578.98 265.98L610.75 265.98L610.75 271.23L578.98 271.23L578.98 375.07L573.73 375.07L573.73 271.23L559.26 271.23L559.26 265.98L573.73 265.98C573.73 241.1 573.73 227.29 573.73 224.52C573.23 217.51 575.56 210.59 580.18 205.31C584.39 200.95 590.23 198.56 596.29 198.74C603.49 198.66 610.31 201.95 614.72 207.64C613.9 208.27 611.42 210.16 610.6 210.79Z" id="e1aUSPJcdW"></path><path d="M583.37 379.27L569.68 379.27L569.68 275.43L555.22 275.43L555.22 261.74L569.68 261.74C569.68 239.41 569.68 227 569.68 224.52C569.22 216.39 572.02 208.41 577.46 202.35C582.48 197.21 589.41 194.39 596.6 194.57C605.05 194.51 613.05 198.37 618.26 205.04C618.45 205.26 619.38 206.41 621.06 208.46L610.33 216.63C608.76 214.83 607.89 213.83 607.72 213.63C605 210.29 600.91 208.37 596.6 208.42C593.05 208.31 589.62 209.73 587.19 212.31C584.41 215.83 583.09 220.29 583.49 224.75C583.49 227.24 583.49 239.64 583.49 261.97L615.26 261.97L615.26 275.66L583.37 275.66L583.37 379.27Z" id="dIh07P2v3"></path><path d="M634.17 367.53C635.24 368.54 635.86 369.94 635.88 371.41C635.9 372.97 635.28 374.46 634.17 375.54C633.09 376.66 631.6 377.29 630.04 377.29C628.57 377.27 627.17 376.65 626.15 375.58C625.04 374.5 624.42 373.01 624.44 371.45C624.54 368.4 626.99 365.94 630.04 365.81C631.59 365.8 633.08 366.42 634.17 367.53Z" id="a1vVWDhl4w"></path><path d="M623.08 378.61C621.2 376.72 620.14 374.16 620.17 371.49C620.27 366.1 624.65 361.77 630.04 361.73C632.71 361.71 635.28 362.76 637.16 364.65C639.02 366.49 640.07 368.99 640.08 371.61C640.04 377.12 635.56 381.57 630.04 381.57C627.42 381.55 624.91 380.49 623.08 378.61ZM630.04 369.9C629.29 369.98 628.69 370.58 628.6 371.34C628.57 371.77 628.74 372.19 629.07 372.46C629.3 372.76 629.66 372.94 630.04 372.93C630.47 372.96 630.89 372.79 631.17 372.46C631.5 372.19 631.68 371.77 631.64 371.34C631.64 370.96 631.47 370.6 631.17 370.36C630.86 370.1 630.45 369.98 630.04 370.05C630.04 370.02 630.04 369.93 630.04 369.9Z" id="a2SVQCRJz4"></path></defs><g><g><g><use xlink:href="#b25AWwg96s" opacity="1" fill="#050303" fill-opacity="1"></use><g><use xlink:href="#b25AWwg96s" opacity="1" fill-opacity="0" stroke="#000000" stroke-width="1" stroke-opacity="0"></use></g></g><g><use xlink:href="#h4GoeMxF1V" opacity="1" fill="#050303" fill-opacity="1"></use><g><use xlink:href="#h4GoeMxF1V" opacity="1" fill-opacity="0" stroke="#000000" stroke-width="1" stroke-opacity="0"></use></g></g><g><use xlink:href="#c6xpgP8sf" opacity="1" fill="#050303" fill-opacity="1"></use><g><use xlink:href="#c6xpgP8sf" opacity="1" fill-opacity="0" stroke="#000000" stroke-width="1" stroke-opacity="0"></use></g></g><g><use xlink:href="#d2mykYx13" opacity="1" fill="#050303" fill-opacity="1"></use><g><use xlink:href="#d2mykYx13" opacity="1" fill-opacity="0" stroke="#000000" stroke-width="1" stroke-opacity="0"></use></g></g><g><use xlink:href="#g30hvmVrhJ" opacity="1" fill="#050303" fill-opacity="1"></use><g><use xlink:href="#g30hvmVrhJ" opacity="1" fill-opacity="0" stroke="#000000" stroke-width="1" stroke-opacity="0"></use></g></g><g><use xlink:href="#g6OdUthWTB" opacity="1" fill="#050303" fill-opacity="1"></use><g><use xlink:href="#g6OdUthWTB" opacity="1" fill-opacity="0" stroke="#000000" stroke-width="1" stroke-opacity="0"></use></g></g><g><use xlink:href="#h1XmwEx1P" opacity="1" fill="#050303" fill-opacity="1"></use><g><use xlink:href="#h1XmwEx1P" opacity="1" fill-opacity="0" stroke="#000000" stroke-width="1" stroke-opacity="0"></use></g></g><g><use xlink:href="#b5J0uiGCR2" opacity="1" fill="#050303" fill-opacity="1"></use><g><use xlink:href="#b5J0uiGCR2" opacity="1" fill-opacity="0" stroke="#000000" stroke-width="1" stroke-opacity="0"></use></g></g><g><use xlink:href="#bjZu8dpus" opacity="1" fill="#050303" fill-opacity="1"></use><g><use xlink:href="#bjZu8dpus" opacity="1" fill-opacity="0" stroke="#000000" stroke-width="1" stroke-opacity="0"></use></g></g><g><use xlink:href="#abgkgPcBG" opacity="1" fill="#050303" fill-opacity="1"></use><g><use xlink:href="#abgkgPcBG" opacity="1" fill-opacity="0" stroke="#000000" stroke-width="1" stroke-opacity="0"></use></g></g><g><use xlink:href="#e1aUSPJcdW" opacity="1" fill="#050303" fill-opacity="1"></use><g><use xlink:href="#e1aUSPJcdW" opacity="1" fill-opacity="0" stroke="#000000" stroke-width="1" stroke-opacity="0"></use></g></g><g><use xlink:href="#dIh07P2v3" opacity="1" fill="#050303" fill-opacity="1"></use><g><use xlink:href="#dIh07P2v3" opacity="1" fill-opacity="0" stroke="#000000" stroke-width="1" stroke-opacity="0"></use></g></g><g><use xlink:href="#a1vVWDhl4w" opacity="1" fill="#050303" fill-opacity="1"></use><g><use xlink:href="#a1vVWDhl4w" opacity="1" fill-opacity="0" stroke="#000000" stroke-width="1" stroke-opacity="0"></use></g></g><g><use xlink:href="#a2SVQCRJz4" opacity="1" fill="#050303" fill-opacity="1"></use><g><use xlink:href="#a2SVQCRJz4" opacity="1" fill-opacity="0" stroke="#000000" stroke-width="1" stroke-opacity="0"></use></g></g></g></g></svg>