<svg id="Capa_1" data-name="Capa 1" xmlns="http://www.w3.org/2000/svg" viewBox="0 0 164.56 64.54"><defs><style>.cls-1{fill:#fff;}</style></defs><title>logolorgaf</title><path class="cls-1" d="M2.44,1.63V40.37a5.52,5.52,0,0,0,1.25,4,4.23,4.23,0,0,0,3.16,1.29,4.75,4.75,0,0,0,3.72-1.71l1.06.84A6,6,0,0,1,6.85,47a5.5,5.5,0,0,1-4.1-1.7,6.75,6.75,0,0,1-1.66-4.94V1.63Z"/><path class="cls-1" d="M6.85,48.1a6.59,6.59,0,0,1-4.88-2,7.82,7.82,0,0,1-2-5.7V.55H3.52V40.37a4.5,4.5,0,0,0,.95,3.2,3.15,3.15,0,0,0,2.38,1,3.66,3.66,0,0,0,2.9-1.35l.68-.78,2.76,2.19-.74.85A7.09,7.09,0,0,1,6.85,48.1Z"/><path class="cls-1" d="M27.79,17.79a14.15,14.15,0,0,1,7.33,2,15,15,0,0,1,5.29,5.29,14.7,14.7,0,0,1,0,14.7A15,15,0,0,1,35.12,45a14.15,14.15,0,0,1-7.33,2,14.1,14.1,0,0,1-7.35-2,14.92,14.92,0,0,1-5.27-5.29,14,14,0,0,1-2-7.33,14.1,14.1,0,0,1,2-7.37,14.92,14.92,0,0,1,5.27-5.29A14.1,14.1,0,0,1,27.79,17.79Zm0,1.39A12.71,12.71,0,0,0,21.13,21a13.54,13.54,0,0,0-4.8,4.77,13.39,13.39,0,0,0,0,13.34,13.52,13.52,0,0,0,4.8,4.79,13.27,13.27,0,0,0,13.31,0,13.52,13.52,0,0,0,4.8-4.79,13.32,13.32,0,0,0,0-13.34A13.54,13.54,0,0,0,34.44,21,12.68,12.68,0,0,0,27.79,19.18Z"/><path class="cls-1" d="M27.79,48.1A15.2,15.2,0,0,1,19.88,46a16.07,16.07,0,0,1-5.65-5.67,15.78,15.78,0,0,1,0-15.8,16.07,16.07,0,0,1,5.65-5.67,15.19,15.19,0,0,1,7.91-2.12,15.19,15.19,0,0,1,7.88,2.12,16,16,0,0,1,5.67,5.67,15.78,15.78,0,0,1,0,15.8A16,16,0,0,1,35.67,46,15.19,15.19,0,0,1,27.79,48.1Zm0-27.84a11.75,11.75,0,0,0-6.11,1.64,12.48,12.48,0,0,0-4.41,4.4,12.2,12.2,0,0,0,0,12.22,12.45,12.45,0,0,0,4.41,4.42,12.25,12.25,0,0,0,12.21,0,12.56,12.56,0,0,0,4.42-4.42,12.27,12.27,0,0,0,0-12.22,12.59,12.59,0,0,0-4.42-4.4A11.74,11.74,0,0,0,27.79,20.26Z"/><path class="cls-1" d="M63.68,17.79A12.6,12.6,0,0,1,69.22,19l7.48-2.84.55,1.24-6.46,2.44a13.31,13.31,0,0,1,4.47,4.72A12.85,12.85,0,0,1,76.92,31a12.71,12.71,0,0,1-3.59,9.09,13.33,13.33,0,0,1-9,4.15v1.39a9.14,9.14,0,0,1,5.95,2.9,8.57,8.57,0,0,1,2.37,6.07A9,9,0,0,1,57.31,61a8.67,8.67,0,0,1-2.64-6.39h1.38a7.44,7.44,0,0,0,2.23,5.42,7.64,7.64,0,1,0,10.81-10.8A7.38,7.38,0,0,0,63.68,47a7.7,7.7,0,0,0-5.84,2.7,6.26,6.26,0,0,0-.76,1.09l-1.17-.65a7.51,7.51,0,0,1,.91-1.32A9,9,0,0,1,63,45.66V44.27a13.36,13.36,0,0,1-9-4.15A12.67,12.67,0,0,1,50.44,31a12.76,12.76,0,0,1,1.78-6.65,13.62,13.62,0,0,1,4.8-4.8A12.83,12.83,0,0,1,63.68,17.79Zm0,1.39A11.85,11.85,0,0,0,51.79,31a11.89,11.89,0,0,0,20.3,8.41A11.45,11.45,0,0,0,75.57,31,11.85,11.85,0,0,0,63.68,19.18Z"/><path class="cls-1" d="M63.68,64.73a10.09,10.09,0,0,1-10.1-10.1V53.55h3.56v1.08a6.31,6.31,0,0,0,1.91,4.65,6.21,6.21,0,0,0,4.63,1.93A6.55,6.55,0,0,0,68.33,50a6.27,6.27,0,0,0-4.65-1.92,6.58,6.58,0,0,0-5,2.34,6.66,6.66,0,0,0-.62.89l-.53,1-3.05-1.71.52-1a8.15,8.15,0,0,1,1-1.5A10.13,10.13,0,0,1,60.64,45a14.24,14.24,0,0,1-7.39-4.16A13.77,13.77,0,0,1,49.35,31a13.89,13.89,0,0,1,1.94-7.21,14.66,14.66,0,0,1,5.18-5.17,13.87,13.87,0,0,1,7.21-1.94,13.72,13.72,0,0,1,5.58,1.14l8-3L78.7,18,73,20.18a14.39,14.39,0,0,1,3.17,3.88A13.93,13.93,0,0,1,78,31a13.81,13.81,0,0,1-3.9,9.84A14.23,14.23,0,0,1,66.71,45a10,10,0,0,1,4.4,2.79,9.65,9.65,0,0,1,2.66,6.81,10.06,10.06,0,0,1-10.09,10.1Zm0-44.47A10.79,10.79,0,0,0,52.87,31,10.82,10.82,0,0,0,63.68,41.84,10.81,10.81,0,0,0,74.48,31a10.77,10.77,0,0,0-10.8-10.77Z"/><path class="cls-1" d="M101.76,20.09l-1.06.84a5.6,5.6,0,0,0-4.45-1.72,7,7,0,0,0-5.49,3,17.22,17.22,0,0,0-2.9,8.27V46.43H86.51v-28h1.35v7a11.49,11.49,0,0,1,3.61-5.61,7.91,7.91,0,0,1,4.78-1.9A6.85,6.85,0,0,1,101.76,20.09Z"/><path class="cls-1" d="M89,47.51H85.43V17.29H89v3.5a10.24,10.24,0,0,1,1.85-1.92,9.06,9.06,0,0,1,5.43-2.13,7.92,7.92,0,0,1,6.35,2.64l.74.86-2.76,2.18-.68-.78a4.53,4.53,0,0,0-3.63-1.34,5.88,5.88,0,0,0-4.62,2.58A16.16,16.16,0,0,0,89,30.56Z"/><path class="cls-1" d="M129.81,39.42A14.58,14.58,0,0,1,124.48,45a14.68,14.68,0,0,1-14.81.07,15,15,0,0,1-5.29-5.29,14.12,14.12,0,0,1-2-7.33,14.19,14.19,0,0,1,2-7.37,15,15,0,0,1,5.29-5.29,14.62,14.62,0,0,1,14.81.09,14.88,14.88,0,0,1,5.33,5.53v-7h1.35v22a5.47,5.47,0,0,0,1.26,4,4.22,4.22,0,0,0,3.15,1.29,4.75,4.75,0,0,0,3.72-1.71l1.06.84A6,6,0,0,1,135.57,47a5.5,5.5,0,0,1-4.1-1.7,6.75,6.75,0,0,1-1.66-4.94Zm0-10.39a13.21,13.21,0,0,0-4.76-7.15,12.87,12.87,0,0,0-8-2.7A12.69,12.69,0,0,0,110.35,21a13.54,13.54,0,0,0-4.8,4.77,13.32,13.32,0,0,0,0,13.34,13.52,13.52,0,0,0,4.8,4.79,13.26,13.26,0,0,0,14.7-.93,13.3,13.3,0,0,0,4.76-7.13Z"/><path class="cls-1" d="M135.57,48.1a6.6,6.6,0,0,1-4.88-2,6.8,6.8,0,0,1-1.76-3.47A15.67,15.67,0,0,1,125,45.9a15.72,15.72,0,0,1-15.92.07,16,16,0,0,1-5.67-5.67,15.78,15.78,0,0,1,0-15.8,16,16,0,0,1,5.67-5.67,15.74,15.74,0,0,1,15.93.09A16,16,0,0,1,128.72,22V17.29h3.52V40.37a4.45,4.45,0,0,0,1,3.2,3.13,3.13,0,0,0,2.37,1,3.63,3.63,0,0,0,2.9-1.35l.69-.78,2.75,2.19-.73.85A7.11,7.11,0,0,1,135.57,48.1ZM117,20.26a11.75,11.75,0,0,0-6.11,1.64,12.59,12.59,0,0,0-4.42,4.4,12.23,12.23,0,0,0,0,12.22,12.45,12.45,0,0,0,4.41,4.42A11.84,11.84,0,0,0,117,44.57a11.6,11.6,0,0,0,7.37-2.49,12.3,12.3,0,0,0,4.34-6.42V29.18a12.23,12.23,0,0,0-4.33-6.44A11.7,11.7,0,0,0,117,20.26Z"/><path class="cls-1" d="M157,4.19a4.69,4.69,0,0,0-3.68-1.72,4.26,4.26,0,0,0-3.2,1.3,5.46,5.46,0,0,0-1.25,4V18.38h8.17v1.35h-8.17v26.7h-1.35V19.73h-3.72V18.38h3.72V7.72a6.77,6.77,0,0,1,1.66-4.94,5.53,5.53,0,0,1,4.14-1.69,5.92,5.92,0,0,1,4.74,2.29Z"/><path class="cls-1" d="M150,47.51h-3.52V20.81h-3.72V17.29h3.72V7.72a7.85,7.85,0,0,1,2-5.7,6.64,6.64,0,0,1,4.92-2,7,7,0,0,1,5.57,2.69l.72.88-2.76,2.1-.67-.77a3.63,3.63,0,0,0-2.86-1.34,3.19,3.19,0,0,0-2.42,1,4.52,4.52,0,0,0-.95,3.2v9.57h8.17v3.52H150Z"/><path class="cls-1" d="M162,44.05a1.46,1.46,0,0,1,1.06.44,1.4,1.4,0,0,1,.44,1,1.44,1.44,0,0,1-.44,1.06A1.46,1.46,0,0,1,162,47a1.4,1.4,0,0,1-1-.44,1.44,1.44,0,0,1-.44-1.06A1.5,1.5,0,0,1,162,44.05Z"/><path class="cls-1" d="M162,48.1a2.52,2.52,0,0,1-1.79-.76,2.56,2.56,0,0,1-.75-1.83A2.56,2.56,0,0,1,162,43a2.56,2.56,0,0,1,1.83.75,2.52,2.52,0,0,1,.75,1.79A2.58,2.58,0,0,1,162,48.1Zm0-3a.42.42,0,0,0-.37.37.34.34,0,0,0,.12.29.31.31,0,0,0,.25.12.35.35,0,0,0,.29-.12.34.34,0,0,0,.12-.29.31.31,0,0,0-.12-.25A.35.35,0,0,0,162,45.14Z"/></svg>