<svg id="Capa_1" data-name="Capa 1" xmlns="http://www.w3.org/2000/svg" viewBox="0 0 455.85 102.39"><defs><style>.cls-1{fill:#fff;}.cls-2{fill:#666362;}</style></defs><title>bloglogo</title><path class="cls-1" d="M3.85,2.58V63.86c0,2.81.67,4.89,2,6.26a6.7,6.7,0,0,0,5,2,7.5,7.5,0,0,0,5.89-2.72l1.67,1.33a9.55,9.55,0,0,1-7.56,3.58,8.76,8.76,0,0,1-6.49-2.68Q1.72,69,1.72,63.86V2.58Z"/><path class="cls-1" d="M10.83,76.08a10.44,10.44,0,0,1-7.72-3.2C1.05,70.77,0,67.73,0,63.86V.87H5.57v63c0,2.33.51,4,1.5,5.06a5,5,0,0,0,3.76,1.53,5.8,5.8,0,0,0,4.59-2.12l1.08-1.24,4.36,3.45L19.7,71.9A11.27,11.27,0,0,1,10.83,76.08Z"/><path class="cls-1" d="M44,28.14a22.29,22.29,0,0,1,11.6,3.12,23.69,23.69,0,0,1,8.37,8.36,23.3,23.3,0,0,1,0,23.26,23.53,23.53,0,0,1-8.37,8.36A22.29,22.29,0,0,1,44,74.36a22.21,22.21,0,0,1-11.62-3.12A23.52,23.52,0,0,1,24,62.88a23.24,23.24,0,0,1,0-23.26,23.68,23.68,0,0,1,8.34-8.36A22.21,22.21,0,0,1,44,28.14Zm0,2.2a20.31,20.31,0,0,0-10.53,2.82,21.53,21.53,0,0,0-7.58,7.56,21.06,21.06,0,0,0,0,21.09,21.45,21.45,0,0,0,7.58,7.59,21.07,21.07,0,0,0,21.06,0,21.56,21.56,0,0,0,7.59-7.59,21.06,21.06,0,0,0,0-21.09,21.64,21.64,0,0,0-7.59-7.56A20.26,20.26,0,0,0,44,30.34Z"/><path class="cls-1" d="M44,76.08a24,24,0,0,1-12.5-3.36,25.44,25.44,0,0,1-8.94-9,25,25,0,0,1,0-25,25.44,25.44,0,0,1,8.94-9A24.1,24.1,0,0,1,44,26.43a24.09,24.09,0,0,1,12.48,3.35,25.33,25.33,0,0,1,9,9,24.93,24.93,0,0,1,0,25,25.33,25.33,0,0,1-9,9A24.1,24.1,0,0,1,44,76.08Zm0-44a18.6,18.6,0,0,0-9.65,2.59,19.91,19.91,0,0,0-7,7,19.39,19.39,0,0,0,0,19.33,19.83,19.83,0,0,0,7,7,19.27,19.27,0,0,0,19.3,0,19.83,19.83,0,0,0,7-7,19.33,19.33,0,0,0,0-19.33,19.91,19.91,0,0,0-7-7A18.58,18.58,0,0,0,44,32.05Z"/><path class="cls-1" d="M100.73,28.14a19.82,19.82,0,0,1,8.77,2l11.82-4.51.87,2L112,31.43A21,21,0,0,1,119,38.9a20.36,20.36,0,0,1,2.63,10.19A20,20,0,0,1,116,63.45,21.05,21.05,0,0,1,101.82,70v2.19a14.51,14.51,0,0,1,9.41,4.59A13.58,13.58,0,0,1,115,86.42,14.26,14.26,0,0,1,90.66,96.51a13.67,13.67,0,0,1-4.19-10.09h2.2A11.73,11.73,0,0,0,92.19,95a12.08,12.08,0,1,0,17.1-17.08,11.64,11.64,0,0,0-8.56-3.55,12.17,12.17,0,0,0-9.24,4.27,11,11,0,0,0-1.21,1.73l-1.84-1a11.62,11.62,0,0,1,1.44-2.08,14.23,14.23,0,0,1,9.81-5V70a21.11,21.11,0,0,1-14.23-6.58,20.06,20.06,0,0,1-5.68-14.36,20.17,20.17,0,0,1,2.83-10.53A21.31,21.31,0,0,1,90.2,31,20.26,20.26,0,0,1,100.73,28.14Zm0,2.2A18.76,18.76,0,0,0,81.92,49.09,18.81,18.81,0,0,0,114,62.39a18.14,18.14,0,0,0,5.5-13.3,18.74,18.74,0,0,0-18.8-18.75Z"/><path class="cls-1" d="M100.73,102.39a16,16,0,0,1-16-16V84.7h5.62v1.72a10,10,0,0,0,3,7.36,9.84,9.84,0,0,0,7.32,3,10.37,10.37,0,0,0,7.35-17.7,9.93,9.93,0,0,0-7.35-3,10.4,10.4,0,0,0-8,3.71,9.26,9.26,0,0,0-1,1.41l-.84,1.5L86.11,80l.82-1.49a13.64,13.64,0,0,1,1.66-2.38,16.09,16.09,0,0,1,7.33-4.89,22.52,22.52,0,0,1-11.7-6.58,21.79,21.79,0,0,1-6.16-15.55,22.07,22.07,0,0,1,3.07-11.41,23.2,23.2,0,0,1,8.19-8.19,22.06,22.06,0,0,1,11.41-3.06,21.8,21.8,0,0,1,8.83,1.81l12.68-4.82,2.25,5.11-9,3.4a22.67,22.67,0,0,1,5,6.13,22.11,22.11,0,0,1,2.85,11,21.75,21.75,0,0,1-6.16,15.55,22.5,22.5,0,0,1-11.71,6.59,15.94,15.94,0,0,1,7,4.41,15.28,15.28,0,0,1,4.22,10.78,15.91,15.91,0,0,1-16,16Zm0-70.34a17.05,17.05,0,0,0-17.1,17,17.11,17.11,0,0,0,17.1,17.09,17.11,17.11,0,0,0,17.09-17.09,17.05,17.05,0,0,0-17.09-17Z"/><path class="cls-1" d="M161,31.78l-1.67,1.33c-1.58-1.81-3.92-2.72-7-2.72a11.05,11.05,0,0,0-8.68,4.76q-3.49,4.59-4.59,13.07V73.44h-2.14V29.07H139v11a18.17,18.17,0,0,1,5.71-8.89,12.55,12.55,0,0,1,7.56-3Q157.91,28.2,161,31.78Z"/><path class="cls-1" d="M140.7,75.15h-5.57V27.35h5.57v5.53a15.64,15.64,0,0,1,2.93-3,14.28,14.28,0,0,1,8.59-3.37c4.3,0,7.68,1.41,10.05,4.18L163.42,32l-4.35,3.45L158,34.24c-1.24-1.43-3.12-2.13-5.74-2.13a9.31,9.31,0,0,0-7.32,4.08c-2.11,2.79-3.54,6.87-4.23,12.14Z"/><path class="cls-1" d="M205.33,62.36a23.18,23.18,0,0,1-8.42,8.77,22.54,22.54,0,0,1-11.83,3.23,22.29,22.29,0,0,1-11.6-3.12,23.42,23.42,0,0,1-8.36-8.36,23.24,23.24,0,0,1,0-23.26,23.58,23.58,0,0,1,8.36-8.36,23.11,23.11,0,0,1,23.43.14,23.54,23.54,0,0,1,8.42,8.74V29.07h2.13V63.86c0,2.81.67,4.89,2,6.26a6.68,6.68,0,0,0,5,2,7.5,7.5,0,0,0,5.88-2.72L222,70.78a9.57,9.57,0,0,1-7.56,3.58,8.77,8.77,0,0,1-6.5-2.68q-2.62-2.69-2.62-7.82Zm0-16.45a20.9,20.9,0,0,0-7.53-11.3,21.08,21.08,0,0,0-23.25-1.45A21.64,21.64,0,0,0,167,40.72a21.06,21.06,0,0,0,0,21.09,21.56,21.56,0,0,0,7.59,7.59,21,21,0,0,0,23.25-1.47,21.1,21.1,0,0,0,7.53-11.28Z"/><path class="cls-1" d="M214.45,76.08a10.41,10.41,0,0,1-7.72-3.2,10.8,10.8,0,0,1-2.78-5.5,24.79,24.79,0,0,1-6.16,5.22,24.9,24.9,0,0,1-25.19.12,25.33,25.33,0,0,1-9-9,24.93,24.93,0,0,1,0-25,25.41,25.41,0,0,1,9-9,24.89,24.89,0,0,1,25.2.15,25.42,25.42,0,0,1,5.81,4.84V27.35h5.57V63.86c0,2.33.51,4,1.51,5.06a5,5,0,0,0,3.76,1.53A5.81,5.81,0,0,0,219,68.32l1.07-1.23,4.36,3.45-1.16,1.36A11.25,11.25,0,0,1,214.45,76.08Zm-29.37-44a18.58,18.58,0,0,0-9.65,2.59,19.83,19.83,0,0,0-7,7,19.33,19.33,0,0,0,0,19.33,19.83,19.83,0,0,0,7,7,19.26,19.26,0,0,0,21.32-1.35,19.45,19.45,0,0,0,6.86-10.17V46.15A19.32,19.32,0,0,0,196.76,36,18.5,18.5,0,0,0,185.08,32.05Z"/><path class="cls-1" d="M248.37,6.62a7.46,7.46,0,0,0-5.83-2.71,6.71,6.71,0,0,0-5,2.05q-2,2-2,6.26V29.07h12.92V31.2H235.51V73.44h-2.14V31.2h-5.88V29.07h5.88V12.22c0-3.42.87-6,2.63-7.82a8.77,8.77,0,0,1,6.54-2.68A9.33,9.33,0,0,1,250,5.35Z"/><path class="cls-1" d="M237.22,75.15h-5.57V32.92h-5.88V27.35h5.88V12.22c0-3.87,1-6.91,3.12-9A10.49,10.49,0,0,1,242.54,0a11,11,0,0,1,8.83,4.26l1.14,1.38L248.13,9l-1-1.21a5.75,5.75,0,0,0-4.54-2.12,5,5,0,0,0-3.81,1.53c-1,1-1.51,2.73-1.51,5.06V27.35h12.93v5.57H237.22Z"/><path class="cls-1" d="M256.22,69.69a2.28,2.28,0,0,1,1.67.69,2.21,2.21,0,0,1,.69,1.61,2.36,2.36,0,0,1-2.36,2.37,2.22,2.22,0,0,1-1.62-.69,2.3,2.3,0,0,1-.69-1.68,2.36,2.36,0,0,1,2.31-2.3Z"/><path class="cls-1" d="M256.22,76.08a3.94,3.94,0,0,1-2.83-1.2,4,4,0,0,1-1.2-2.89,4.08,4.08,0,0,1,4-4,4,4,0,0,1,2.89,1.19A3.93,3.93,0,0,1,260.3,72a4.08,4.08,0,0,1-4.08,4.09Zm0-4.68a.51.51,0,0,0-.4.19.49.49,0,0,0-.19.4.57.57,0,0,0,.19.46.48.48,0,0,0,.4.19.65.65,0,0,0,.65-.65.53.53,0,0,0-.19-.4A.57.57,0,0,0,256.22,71.4Z"/><path class="cls-2" d="M276.44,2.68V39.83a23.6,23.6,0,0,1,8.39-8.65A22.83,22.83,0,0,1,308,31a23.34,23.34,0,0,1,8.25,8.27,23,23,0,0,1,0,23A23.34,23.34,0,0,1,308,70.58a22.86,22.86,0,0,1-23.14-.11,23.28,23.28,0,0,1-8.39-8.67v11h-2.11V2.68Zm0,53.47a20.78,20.78,0,0,0,7.48,11.15,20.74,20.74,0,0,0,23,1.46,21.16,21.16,0,0,0,7.5-7.51,20.81,20.81,0,0,0,0-20.85,21.24,21.24,0,0,0-7.5-7.48,20.76,20.76,0,0,0-23,1.43,20.64,20.64,0,0,0-7.48,11.18Z"/><path class="cls-2" d="M296.47,75.36A23.9,23.9,0,0,1,284,71.93a25.34,25.34,0,0,1-5.82-4.82v7.34h-5.51V1h5.51V34.55A25.29,25.29,0,0,1,284,29.73a24.51,24.51,0,0,1,24.89-.15,25.09,25.09,0,0,1,8.84,8.86,24.7,24.7,0,0,1,0,24.74A25.09,25.09,0,0,1,308.84,72,23.71,23.71,0,0,1,296.47,75.36ZM278.14,55.91A19.25,19.25,0,0,0,285,66a18.3,18.3,0,0,0,11.52,3.9A18.51,18.51,0,0,0,306,67.3a19.63,19.63,0,0,0,6.91-6.91,19.13,19.13,0,0,0,0-19.12A19.66,19.66,0,0,0,306,34.38,19.06,19.06,0,0,0,285,35.7a19.07,19.07,0,0,0-6.81,10.07Z"/><path class="cls-2" d="M336.53,2.68v60.6q0,4.17,2,6.19a6.62,6.62,0,0,0,4.94,2,7.44,7.44,0,0,0,5.82-2.68l1.65,1.31a9.43,9.43,0,0,1-7.47,3.54A8.62,8.62,0,0,1,337,71c-1.73-1.77-2.6-4.34-2.6-7.73V2.68Z"/><path class="cls-2" d="M343.44,75.36a10.32,10.32,0,0,1-7.64-3.16c-2-2.09-3.08-5.09-3.08-8.92V1h5.51v62.3c0,2.31.5,4,1.49,5a4.94,4.94,0,0,0,3.72,1.51A5.75,5.75,0,0,0,348,67.7l1.07-1.22,4.3,3.41-1.14,1.34A11.15,11.15,0,0,1,343.44,75.36Z"/><path class="cls-2" d="M376.19,28A22,22,0,0,1,387.66,31a23.19,23.19,0,0,1,8.28,8.27,23,23,0,0,1,0,23,23.19,23.19,0,0,1-8.28,8.27,22.87,22.87,0,0,1-23,0,23.26,23.26,0,0,1-8.25-8.27,23,23,0,0,1,0-23A23.26,23.26,0,0,1,364.7,31,21.93,21.93,0,0,1,376.19,28Zm0,2.16a20.05,20.05,0,0,0-10.41,2.8,21.24,21.24,0,0,0-7.5,7.48,20.81,20.81,0,0,0,0,20.85,21.16,21.16,0,0,0,7.5,7.51,20.83,20.83,0,0,0,20.83,0,21.16,21.16,0,0,0,7.5-7.51,20.81,20.81,0,0,0,0-20.85,21.24,21.24,0,0,0-7.5-7.48A20.06,20.06,0,0,0,376.19,30.12Z"/><path class="cls-2" d="M376.19,75.36A23.76,23.76,0,0,1,363.82,72,25.15,25.15,0,0,1,355,63.18a24.7,24.7,0,0,1,0-24.74,25.09,25.09,0,0,1,8.84-8.86,24.63,24.63,0,0,1,24.7,0,25,25,0,0,1,8.87,8.86,24.7,24.7,0,0,1,0,24.74A25,25,0,0,1,388.53,72,23.76,23.76,0,0,1,376.19,75.36Zm0-43.54a18.4,18.4,0,0,0-9.54,2.56,19.68,19.68,0,0,0-6.92,6.89,19.16,19.16,0,0,0,0,19.12,19.63,19.63,0,0,0,6.91,6.91,19.07,19.07,0,0,0,19.09,0,19.63,19.63,0,0,0,6.91-6.91,19.13,19.13,0,0,0,0-19.12,19.66,19.66,0,0,0-6.91-6.89A18.41,18.41,0,0,0,376.19,31.82Z"/><path class="cls-2" d="M432.35,28A19.47,19.47,0,0,1,441,29.9l11.7-4.45.86,1.94-10.11,3.82a20.65,20.65,0,0,1,7,7.39,20,20,0,0,1,2.6,10.07,19.8,19.8,0,0,1-5.62,14.21,20.88,20.88,0,0,1-14,6.51v2.16a14.3,14.3,0,0,1,9.3,4.54,13.38,13.38,0,0,1,3.71,9.5,14.1,14.1,0,1,1-28.19,0h2.17a11.61,11.61,0,0,0,3.48,8.48,12,12,0,1,0,16.92-16.89,11.54,11.54,0,0,0-8.47-3.51,12,12,0,0,0-9.13,4.22A10.12,10.12,0,0,0,422,79.6l-1.83-1a11.33,11.33,0,0,1,1.43-2,14.09,14.09,0,0,1,9.7-5V69.39a20.94,20.94,0,0,1-14.07-6.51,19.84,19.84,0,0,1-5.62-14.21,20,20,0,0,1,2.8-10.41,21.16,21.16,0,0,1,7.5-7.51A20.06,20.06,0,0,1,432.35,28Zm0,2.16a18.57,18.57,0,0,0-18.61,18.55,18.61,18.61,0,0,0,37.21,0,18.57,18.57,0,0,0-18.6-18.55Z"/><path class="cls-2" d="M432.35,101.39a15.79,15.79,0,0,1-15.8-15.8v-1.7h5.57v1.7a9.89,9.89,0,0,0,3,7.28,9.73,9.73,0,0,0,7.24,3,10.28,10.28,0,0,0,10.28-10.29,9.72,9.72,0,0,0-3-7.21,9.83,9.83,0,0,0-7.27-3A10.31,10.31,0,0,0,424.47,79a8.55,8.55,0,0,0-1,1.39l-.83,1.48-4.78-2.68.81-1.47a13.55,13.55,0,0,1,1.64-2.36,15.86,15.86,0,0,1,7.26-4.84A22.35,22.35,0,0,1,416,64.05a21.53,21.53,0,0,1-6.09-15.38,21.7,21.7,0,0,1,3-11.28,22.91,22.91,0,0,1,8.09-8.1,21.85,21.85,0,0,1,11.29-3,21.56,21.56,0,0,1,8.74,1.79l12.53-4.77,2.23,5.06L447,31.7a22.64,22.64,0,0,1,5,6.06,21.9,21.9,0,0,1,2.82,10.91,21.53,21.53,0,0,1-6.09,15.38,22.26,22.26,0,0,1-11.58,6.52A15.82,15.82,0,0,1,444,74.93a15.11,15.11,0,0,1,4.17,10.66,15.74,15.74,0,0,1-15.79,15.8Zm0-69.57a16.21,16.21,0,0,0-12,4.93,16,16,0,0,0-4.95,11.92,16.91,16.91,0,0,0,33.81,0,16.87,16.87,0,0,0-16.9-16.85Z"/></svg>